<svg xmlns="http://www.w3.org/2000/svg"  width="35.207" height="35.207" viewBox="0 0 35.207 35.207">
    <g id="Grupo_2885" class="menu__path__seleccion" data-name="Grupo 2885" transform="translate(-454.34 -4095.756)">
      <g id="Grupo_2883" data-name="Grupo 2883">
        <path id="Trazado_3987" data-name="Trazado 3987" d="M489.047,4113.358a17.1,17.1,0,1,0-17.1,17.1A17.1,17.1,0,0,0,489.047,4113.358Z" fill="none"/>
      </g>
      <g id="Grupo_2884" data-name="Grupo 2884">
        <path id="Trazado_3988" data-name="Trazado 3988" d="M489.047,4113.358a17.1,17.1,0,1,0-17.1,17.1A17.1,17.1,0,0,0,489.047,4113.358Z" fill="none" stroke="#fff" stroke-miterlimit="10" stroke-width="1"/>
        <path id="Trazado_3989" data-name="Trazado 3989" d="M473.45,4109.308v-1.62a.859.859,0,0,1,.895-.974h2.274v-3.469l-3.13-.014a3.952,3.952,0,0,0-4.264,4.247v1.83h-2.009v4.053h2.026v10.129h4.052v-10.129H476.3l.37-4.053Z" fill="#fff"/>
      </g>
    </g>
</svg>
