<svg xmlns="http://www.w3.org/2000/svg" width="35.207" height="35.207" viewBox="0 0 35.207 35.207">
  <defs>
    <style>
      #Grupo_2892:hover #Grupo_2891 #Trazado_3995{
         fill: #FFFFFF;
      }
       
      #Grupo_2892:hover #Grupo_2891 #Trazado_3996
      {
         fill: #00AFFF;
      }
    </style>
  </defs>
  <g id="Grupo_2892" data-name="Grupo 2892" transform="translate(-734.418 -4095.756)">
    <g id="Grupo_2890" data-name="Grupo 2890">
      <path id="Trazado_3994" data-name="Trazado 3994" d="M769.125,4113.359a17.1,17.1,0,1,0-17.1,17.1A17.1,17.1,0,0,0,769.125,4113.359Z" fill="none"/>
    </g>
    <g id="Grupo_2891" data-name="Grupo 2891">
      <path id="Trazado_3995" data-name="Trazado 3995" d="M769.125,4113.359a17.1,17.1,0,1,0-17.1,17.1A17.1,17.1,0,0,0,769.125,4113.359Z" fill="none" stroke="#fff" stroke-miterlimit="10" stroke-width="1"/>
      <path id="Trazado_3996" data-name="Trazado 3996" d="M751.982,4103.015a10.219,10.219,0,1,0,10.219,10.218A10.218,10.218,0,0,0,751.982,4103.015Zm4.7,14.765a.607.607,0,0,1-.869.205c-2.4-1.482-5.415-1.788-8.992-.971a.632.632,0,0,1-.306-1.226c3.883-.869,7.255-.511,9.911,1.124A.611.611,0,0,1,756.683,4117.78Zm1.226-2.81a.77.77,0,0,1-1.073.256,13.243,13.243,0,0,0-10.167-1.175.776.776,0,1,1-.46-1.482,14.947,14.947,0,0,1,11.5,1.379A.722.722,0,0,1,757.909,4114.97Zm.1-2.861c-3.27-1.941-8.736-2.146-11.853-1.175a.937.937,0,0,1-.562-1.788c3.627-1.073,9.6-.869,13.386,1.379a.989.989,0,0,1,.358,1.329A1.071,1.071,0,0,1,758.011,4112.109Z" fill="#fff"/>
    </g>
  </g>
</svg>
