<svg xmlns="http://www.w3.org/2000/svg" width="35.207" height="35.207" viewBox="0 0 35.207 35.207">
  <defs>
    <style>
      #Grupo_2877:hover #Grupo_2876 #Trazado_3979{
         fill: #FFFFFF;
      }
      #Grupo_2877:hover #Grupo_2876 #Trazado_3980{
         fill: #00AFFF;
      }
    </style>
  </defs>
  <g id="Grupo_2877" data-name="Grupo 2877" transform="translate(-566.326 -4095.756)">
    <g id="Grupo_2875" data-name="Grupo 2875">
      <path id="Trazado_3978" data-name="Trazado 3978" d="M601.033,4113.359a17.1,17.1,0,1,0-17.1,17.1A17.1,17.1,0,0,0,601.033,4113.359Z" fill="none"/>
    </g>
    <g id="Grupo_2876" data-name="Grupo 2876">
      <path id="Trazado_3979" data-name="Trazado 3979" d="M601.033,4113.359a17.1,17.1,0,1,0-17.1,17.1A17.1,17.1,0,0,0,601.033,4113.359Z" fill="none" stroke="#fff" stroke-miterlimit="10" stroke-width="1"/>
      <path id="Trazado_3980" data-name="Trazado 3980" d="M593.854,4108.227a8.437,8.437,0,0,1-2.183.558,4.114,4.114,0,0,0,1.772-2.1.064.064,0,0,0-.092-.078,8.394,8.394,0,0,1-2.492.91,4.178,4.178,0,0,0-3.035-1.292,4.094,4.094,0,0,0-4.048,5.024,11.874,11.874,0,0,1-8.546-4.25.023.023,0,0,0-.038,0,4.051,4.051,0,0,0,1.231,5.384.026.026,0,0,1-.016.046,4.192,4.192,0,0,1-1.76-.49.021.021,0,0,0-.032.019,5.507,5.507,0,0,0,.281,1.5,4.192,4.192,0,0,0,3.053,2.53,4.306,4.306,0,0,1-1.1.145,4.193,4.193,0,0,1-.745-.069.023.023,0,0,0-.027.03,4.159,4.159,0,0,0,3.8,2.8.025.025,0,0,1,.015.045,8.415,8.415,0,0,1-5.108,1.71,8.715,8.715,0,0,1-.989-.056,11.9,11.9,0,0,0,6.37,1.837,11.578,11.578,0,0,0,7.788-2.811,12.01,12.01,0,0,0,3.757-6.36,11.268,11.268,0,0,0,.284-2.47c0-.176,0-.354-.013-.529a8.4,8.4,0,0,0,1.946-1.937A.064.064,0,0,0,593.854,4108.227Z" fill="#fff"/>
    </g>
  </g>
</svg>
