<svg xmlns="http://www.w3.org/2000/svg" width="35.249" height="35.253" viewBox="0 0 35.249 35.253">
  <defs>
    <style>
      #Grupo_2895:hover #Grupo_2894 #Trazado_3998{
         fill: #FFFFFF;
      }
       
      #Grupo_2895:hover #Grupo_2894 #Trazado_3999
      {
         fill: #00AFFF;
      }
    </style>
  </defs>
  <g id="Grupo_2895" data-name="Grupo 2895" transform="translate(-790.411 -4095.733)">
    <g id="Grupo_2893" data-name="Grupo 2893">
      <path id="Trazado_3997" data-name="Trazado 3997" d="M808.036,4096.233a17.126,17.126,0,1,0,17.124,17.128A17.127,17.127,0,0,0,808.036,4096.233Z" fill="none"/>
    </g>
    <g id="Grupo_2894" data-name="Grupo 2894">
      <path id="Trazado_3998" data-name="Trazado 3998" d="M808.036,4096.233a17.126,17.126,0,1,0,17.124,17.128A17.127,17.127,0,0,0,808.036,4096.233Z" fill="none" stroke="#fff" stroke-miterlimit="10" stroke-width="1"/>
      <path id="Trazado_3999" data-name="Trazado 3999" d="M819.506,4110.75q-.013-.4-.043-.8a5.9,5.9,0,0,0-.963-3.342,3.667,3.667,0,0,0-2.579-1.059c-1.2-.135-2.4-.217-3.6-.263-2.433-.093-4.869-.039-7.3.015-1.25.028-2.5.056-3.747.155-1.531.122-3.1.346-3.818,1.876a11.274,11.274,0,0,0-.568,4.593c-.008,1.324-.012,2.649.041,3.972.069,1.718.171,3.955,2.025,4.709a10.66,10.66,0,0,0,3.242.56c1.12.073,2.244.064,3.366.081,2.353.035,4.706-.046,7.059-.092a15.969,15.969,0,0,0,4.875-.585c1.349-.46,1.7-1.923,1.884-3.192a26.334,26.334,0,0,0,.133-3.81C819.514,4112.627,819.539,4111.688,819.506,4110.75Zm-13.6,5.912v-6.887l5.862,3.442Z" fill="#fff"/>
    </g>
  </g>
</svg>
